<?xml version="1.0" encoding="UTF-8"?>
<svg xmlns="http://www.w3.org/2000/svg" id="Layer_1" data-name="Layer 1" viewBox="0 0 24 24">
  <path d="m24,19.505c0,1.376-1.119,2.495-2.495,2.495h-1.005v1.5c0,.276-.224.5-.5.5s-.5-.224-.5-.5v-1.5h-1.005c-1.376,0-2.495-1.119-2.495-2.495,0-.276.224-.5.5-.5s.5.224.5.5c0,.824.671,1.495,1.495,1.495h3.01c.824,0,1.495-.671,1.495-1.495,0-.664-.446-1.255-1.084-1.438l-4.106-1.174c-1.065-.304-1.81-1.29-1.81-2.398,0-1.376,1.119-2.495,2.495-2.495h1.005v-1.5c0-.276.224-.5.5-.5s.5.224.5.5v1.5h1.005c1.376,0,2.495,1.119,2.495,2.495,0,.276-.224.5-.5.5s-.5-.224-.5-.5c0-.824-.671-1.495-1.495-1.495h-3.01c-.824,0-1.495.671-1.495,1.495,0,.664.446,1.255,1.084,1.438l4.106,1.174c1.065.304,1.81,1.29,1.81,2.398ZM4.5,3h1c.276,0,.5-.224.5-.5,0-.827.673-1.5,1.5-1.5h3c.827,0,1.5.673,1.5,1.5,0,.276.224.5.5.5h1c1.93,0,3.5,1.57,3.5,3.5v3c0,.276.224.5.5.5s.5-.224.5-.5v-3c0-2.481-2.019-4.5-4.5-4.5h-.55c-.232-1.14-1.242-2-2.45-2h-3c-1.208,0-2.217.86-2.45,2h-.55C2.019,2,0,4.019,0,6.5v13c0,2.481,2.019,4.5,4.5,4.5h9c.583,0,1.15-.11,1.688-.327.256-.104.379-.396.276-.651-.103-.256-.395-.378-.651-.276-.417.169-.859.255-1.312.255H4.5c-1.93,0-3.5-1.57-3.5-3.5V6.5c0-1.93,1.57-3.5,3.5-3.5Zm4.662,2.323c.195.195.195.512,0,.707l-2.525,2.525c-.287.287-.667.444-1.072.444h0c-.404,0-.785-.158-1.07-.444l-1.347-1.346c-.195-.195-.195-.512,0-.707s.512-.195.707,0l1.347,1.346c.098.098.227.151.364.151s.268-.054.365-.151l2.525-2.525c.195-.195.512-.195.707,0h0Zm0,6c.195.195.195.512,0,.707l-2.525,2.525c-.287.287-.667.444-1.072.444h0c-.404,0-.785-.158-1.07-.444l-1.347-1.346c-.195-.195-.195-.512,0-.707s.512-.195.707,0l1.347,1.346c.098.098.227.151.364.151s.268-.054.365-.151l2.525-2.525c.195-.195.512-.195.707,0h0Zm0,6c.195.195.195.512,0,.707l-2.525,2.525c-.287.287-.667.444-1.072.444h0c-.404,0-.785-.158-1.07-.444l-1.347-1.346c-.195-.195-.195-.512,0-.707s.512-.195.707,0l1.347,1.346c.098.098.227.151.364.151s.268-.054.365-.151l2.525-2.525c.195-.195.512-.195.707,0h0Z"/>
</svg>
