<svg id="Layer_1" data-name="Layer 1" xmlns="http://www.w3.org/2000/svg" xmlns:xlink="http://www.w3.org/1999/xlink" viewBox="0 0 15.56 15.56"><defs><style>.cls-1,.cls-5{fill:none;}.cls-2{opacity:0.6;}.cls-3{clip-path:url(#clip-path);}.cls-4{opacity:0.3;}.cls-5{stroke:#fff;stroke-linecap:round;stroke-linejoin:round;stroke-width:0.89px;}.cls-6{fill:#fff;stroke:#f8b530;stroke-miterlimit:10;stroke-width:1.68px;}</style><clipPath id="clip-path"><rect class="cls-1" x="-1548.42" y="-396.17" width="1364.41" height="802.02"/></clipPath></defs><title>pointer</title><g class="cls-2"><g class="cls-3"><g class="cls-4"><path class="cls-5" d="M-1920.82-309.91l-.62.7-.46.63.31-.06,1-1,1-.59.09-.32-.76.18Zm63.1,29.91-.28-.73-.59-1.95-.35-.94-.4-.78-.55-1-.61-.6-.42-.14-1.39-.94h-.66l-.25.17-.53.85-.07.32-.28.33-.36.2-.68.14-.23.34v.46l.34,1.2-.09.39-.2.44,1-.22.34-.35.69-1.59.3-.05.51.56.22,1,.48.3.36,0,.07.16-.74.88-.15.35v.4l.06.26.29.2.78-.22.11.2-.08.71.4.21.51.39.58-.06.28-.11.05.08-.37.49-.22.18-.1.3v.41l.2.57.66,1.22.27.38.36.37.44.22.18-.1.15-.68V-277l-.16-.8,0-.3.18-.21.09-.23-.07-1.05Zm3.43-4.95,1.12-.34.09-.15v-.15l-.42-.76.34-.38-.1-.83-.15-.3-.79-.91-1.18-1.6-.21-.74,0-.66.09-.1.27,0,.24.1.21.25,0,.27.47,1,.24.37.23.18.23.39.45,1,.63.49,0-.1-.3-.73-.22-.76-.39-.79-.67-1.13-1.09-1.4-1.2,0L-1858-293l-.34-.59-.67-.89-.56-.32-.06.24.16.62.24.57.32.52.25.65.18.77.38,2.41.23.91.42.65.7.79,0,.57-.56,1.74-.28.33,0,.53.14.42.24.32.25.14.52-.13,1.13-.83Zm-9.76-1.67,0-1.08.08-.5.28-.15.43,0,1.79.82.87.58,1,.28.38-1-.15-.55-.53-.71-1.74-.08-.57-.34.69-.44.43.18.4,0,.85-.22.27-1.26-.17-.58-.3-.33-1-.42-1.18-.26-.18,0-.3.18-1,.88-.27.16-.37-.19-.14-.25.5-.18.19-.63v-.21l-.92-.91-.36-.23-.61.2-.42.39-.3.09-.64,0-.31.41v.52l-.66-.55-.49-.57-.31.71-.55.33-.37.11-.08.42-.28.73.7.92.53.31,1.94,1.54.51,1.3.55.82,1.41.25Zm17.13,5.53-.27-.46-.48-.4-.8-.27h-.43l-.23.3-.43-.29-2.2-.55-1-.05-.62.23-.11.31.4.39.61.39.42.44.49.73,0,.8.19,1,.06.73.12.3.18.18.76.11.65-.2,1.09.08.2-.09.15-.19.09-.3v-.35l-.08-.4-.14-.31-.31-.41-.08-.33-.45-.55-.15-.3,0-.11.55.31.72,1,.63.57.2,0,.18-.22.11-.27,0-.33-.06-.64.08-.62Zm1.92,1.79-1.2-1-.18.9-.23.54-.19.28-.08.36.11.39.3.11h.82l.07-.13.21-.15.52-.1.43-.2-.2-.55Zm-10.7-14.06,0-.23-.55-.55-.78-.42-.82.19-.09.2.43.45.89.34Zm12.3,20.67.24.17.52.09.5-.21h.24l.25.08.13-1.51.29-1.23-.89-1.31-.71-.91-.41-.1-.81,1.49-.21.1-.38.75-.49.16-.15.23,0,.62.2.47.37.11,1,.09.29.25-.09.45Zm-4.06-3.69,0,.22.92.74.39.14.33,0,.71-.36.15-.24-.07-.24,0-.23.13-.22,0-.22-.09-.21-.4-.12-1.26,0-.22.11-.52.45ZM-1969.32-314l.64-1-.08-.17-.39-.13-.29.93-.42.48.31,0Zm24.16,2.51-.26.58,1.27.18.34-.29.69-.26-1.06-.57Zm.74-6.95.37.12.82-.08-.08-.48-.14-.24-.47-.23-.41.08v.21l-.15.49Zm18.21,4.79.3.15.56.08.21-.24.1-.49-.17-.12Zm-46.51,17.71.19-.06.6-.53.2-.28,0-.23-.07-.15-.18-.08h-.44l-.91.49-.2.23.31.31Zm40.75-18.6-1.24.06-.14-.27-1.07-.3-.29.12-.41.34-.21.23v.13l.13.34.21.24.21.6.15.05,1.13-.55,1.39-.42.48-.24.17-.18-.14-.12Zm-9.51-.21-.2-.4-.09,0-.22.38-.15.08-.09-.06,0-.2-.1.06-.28.86,0,.19-.08.29-.24.21.13.67h.42l-.11.27,0,.17.18.07.18-.12.18-.31.13-.49.33-.77-.19-.45.2-.24Zm3.46.85-.39,0-.16.45-.84,1.22-.83.85-.91.58-.82.8-.22.09-.3.4-.37.71.17.28.71-.14.43-.18.15-.21.28-.11.4,0,.26-.22.13-.42.2-.26.28-.09.18-.2.19-.58.18-.22,2.13-1.73.19-.33-.4-.42Zm101.49,49.12-.42-1.2-.69-.44h-.34l-.08.14v.43l.14.57-.25.42,0,.58.34-.2.38.12.32.35-.16.59.07.19.25.13.49.06.63-.14,0-.41ZM-1754-89.6l-.32-.52-.21.15.39.54.36.69.42.15.37-.06-.21-.16Zm141.83,32.52-.43,0-1,.72-.48.19-.29.37.24,0,1.42-.85.84-.43.06-.3-.1,0Zm-240-222.62-.34-.48-.6.05-.42-.64-.07-.22-.33-.27-.59-.31-.84.13-.64.73-.11.82,0,.23.68,1-.08.34.9.61.43.52-.71.39-.32,1.91.36,1.15h.43l.35-.5.28.13.19.16.15-.06.14-.18.07-.6.35-.9.09-.88-.08-.88.18-.88.3-.27.27.1.19-.46Zm99,186.84-1-.44-.09.09,0,.19,0,0,.33,0,.1.1.15.4.15.29.49,0,.47.07-.32-.53Zm136.74,39.67-1.06,1.77-.52,1.34-.06.59.2-.4.66-1.66,1.22-1.94Zm1.48-2.34-.51.72-.06.23-.31.57.14,0,.6-.79.52-.5-.11-.31Zm-3.13,6.36-.14.66,0,1.92.87,3.37.53,1.49.09-.32-.2-1-1-3.44ZM-1766-97.59l-.29.12-.18.17.53.08.34,0-.3-.26Zm1.9.34-1.16.09.55.69.34.1.45-.1.38-.39-.07-.08Zm-76.74-168.86-1,.11-.26-.06-.05-.11.16-.16.21-.4v-.21l-.35-.54-.37-.14-.94-.76-1.12.17-.26-.08.32-.26.21-.37.13-.42.11,0,1.39.78.64.25h.15l-.27-.34-.48-.35-.91-1.16-.43-1-.24-.4-.41-.48-1-.91-2.18-.86,0-.09.14-.26,0-.25,0-.35-.15-.37-.25-.4-.38-.38-1.12,0-1.22-.2-.21.21,0,.91.32.36.09.28-.44.47-1,.85.08.31.38.2.94-.51,1.08-.33.53.16.24.56.07.33-.43.31-.09.38-.58.42h-.23l-.58-.32-.3,0-.52.3-.1.17.26.33.56.52.33,0,.86.06.17.34.29.4.35.1,1-.15.36.21-.29.49,0,.28.79,1-.08.17h-.38l-.47.16-.1.29.37.24,1,1,.84,1.25.5.16.14-.39-.12-.51.23-.15.28.1,0,.23.25.52,0,.51.29.39.4,0,.11.11.63.14.19.13.48.94.5.6.35.2h.45l.28-.12.26-.7v-.27l-.09-.3v-.29l.12-.35v-.26l-.15-.58.15-1.56Zm-128.83-28.19-.27-.05-.3-.58-.47.11-.76-.47-.17,0-.24.56-.23-.08-.4-.37-.42-.27-.44-.16-.4,0-1.07.32,0,.2.48.47,0,.63-.27,0-.52-.17-.52,0-.9.55-1.71,1.41.49.23,2.08.62.35,0,.56-.19.38,0,.11-.14.52-.3.28-.36.26-.57.17-.05.08.46.13.16.55-.26.45,0,.46-.09,0-.19-.18-.3v-.2l.42-.41h.11l.18.35.24.27.14.06.36.16.26-.16.56-.62.05-.61-.15,0Zm124.35,31-.46-.06-.26.32-.16.08-.16-.12-.54-1-.23-.27-.09-.69-.46-.5-.19-.43-1.28-1-.85.2-.16.39.23.45.6.23.47.09.3.81.53,1,.27.18,0,.25.43.59.77.82.53.48.65.22.19-.37.19-.27.08-.75.11-.46-.2-.13Zm-4.67-4.59.93-.6v-.16l-.14-.25-.26-.14-.7.33-.72,0-.43-.11-.66.38.66.75-.1,1.29.66-.43.35-.4.2-.13.22-.37Zm21.68-5.72-.27-.4-.75.24-1.28-.36-.41-1-1.11-.3-.6-.7-1.21-.34-1-.24-.75-.4-.88-.47-.88-.51-.66-.38-.49,0-1.11.06-.06-.87-.34-.52.13-.46-.62-.24-.91-.35.27-.89.2-.67-.81-.2-1.16-.29.38-.61.3-.49-.45-.72-.91-1.21-.69-.86-.91-1.35-.8-1.19-.65-1-.54-.67-.77-1.2-1-1.36-.95-1.07.14-.69-.93-.87-.82-.88-.94-1-.93-.5-.67-.36-1-.51-.5-.46-.21-.39-.22-.27-.19-.38-.11-.45-.2-.28-1.17-.66-.36-.42-.8-.48-.67-.2-.23-.16-.82-1.46.13-.52.09-.52-.09-.27-1.35-1.11-.69-.46-.69-.48-1.46.62-1.49.63-1,.23-1.44.32.48.69-.2.5-.45.23-.76,0v1.71l-.72,1.21-1.51,0-.81.42-1.2.62-1,.5-1,.81-.53-.12.24-.72-.38-1.22-.32-1-.66-.52-1.12-.88-.84-.66-1.2-.94-.84-.66-.87-.69-1.15-.91-.47-1.18-1.05-.43-1.12-.46-.91-.87.31-.86.37-1v-.62l-1,0-1.5.06-1.34.05-1,.73-.92.67-1.44-.52-1.65-.6-.47.79-1.53-.39-1.54-.4v-98.1l-.51-.1-1.34-.06-.31.21-.45-.08-.76-.7-1.11-.64-3.84-1.14-.8-.8-1.84-1.09-3.28-1-.37.24-.52.07-1.35-.14h-1.16l-2,.55-2.27.17-1.3.66-3.72-.31-.25-.29-1.31-.2-2.46-1.26-1.51,0-1.44-.35-3-.07-2,.25-4.13-.54-.55-.27-.51-.73-1.09-.14-.67-.46h-.68l-.79.48-.69,0-1.35-1.14-1-.1-2.73-.88-.91.11-.86-.25-2.1,0-1.82.77-.78.11-.83-.11-.9-.54-.77-.23-2,.53-1,.15-.62.38-4.63-.39.8-.69.13-.31.2-.26-2.6,0-.52-.14-.11-.54-.83-.07-.46-.39.21-.93,1.31-.9-.43-.43-1.23-.4-1.16-.11-.73.17-2.88-.66-1.7.49-1.31,0-1.39.19-1.78.89-1.27-.44-1.33-.11-1.2-.54.38-.39.34-.7-.92-.72-.81-.41-1.43-.19-.4.2-.54.79-1.71,1.42-.83.44-1.06.27-.65-.09-.44-.71-.67-.3,2.2-.79,1.09-.78.35-.7-.43-.73-1.06-.07-4.24-1.22-.63-.59.45-.45.65-.21-.48-.13-2,1.05-1.22,1.05-1.43,1.62-.83.63-1.81,1.16-2,1-.57.17-3.12,0-.17.25-.71.25-2.41,0-.51.35-1.13.28-.34,0-.23-.34.5-.38.51-.21-.06-.33-.26-.2-.53,0-2.36,1.08-2.58,1.78h.77l1.39,1.21,2.31.07-1.91.55-.85-.23-.18.51-.1.74v.76l-.07.53-.27-.61-1.21,0,.58-1.33-.65-.29.92-1.11-.53-.2-.46-.07-3.33,1.69-.09.3-2.24,1.35-4.13.81-.83.44-1.47.36-.49,0,.2-.17.84-.33.6-.5.37-.11-.12-.23-.21-.14-.44-.49-.62.51-.6.7-1.8,1.54-3.87,3.87-.91,1.69-.24,1.79-.2.76-.16.09-.12-.14-.29.54-1.83,2-2.14,1.51-1.82.85-1,.28-3.78.38-1,.23-3,.17-4.5-.2.17,1-.65,2.51-.63,1.66-.43.39-.79.32-.5-.14.66-.56-.63.18-.92.54,1.36.44,1.06.14,1.11.33,1.78,1.36,3.69,1.22,8.11,4.84,1.17,1.42.92,2.26.51.82,1.21,1,3.41.82,1.55-.1,1.15.19,1.12-.93v.47l.13.44,2.74-.32,1.58.32.63.45-.7.61-.95,1.29.14,1.12,1.13.59.7.58,1.12.43,2.23-1.09,1.21-.19,1.42.71,1.82-.08.63.43.23.69,0,.95-2.69.51-.86-.12-1.7-1-.69-.23h-1.16l-1.64.4-2-1.08-.91-1.16.21-1.26-.73-.19-.79-1.27-.7-.31-.75.18-.83.39.41,1,.49.75,1,0,.81.44,2,2.16-.19.87.57.44,1.82-.39,2.73.78.33.43.23,1.13-.48-.54-.59.22-.93-.3-.71-.37-.65.33-1.67,2.1-.76.12-1.8-.3-2.4.22-.87-.1-1.06-.42-1.83.25-3.37-.09-2.18-1.41.44-.45.46-.32-.06-1,.7-1.23.12-.41-.4-.33-.36-.15.5-.08,1.14.1-.58-.45-2.13.06-2.59.24-1.37.36-2.51,1.26-.86,0-1.61.32-2.1,1-.23.33-.18.47,1.8.83-.19.24-.26.15-.6.2-1.83-.09-.31-.06-1-.46-1.18.28-.91.47-1.33.52-.94,1-.66.58-.5.3-2.13.19-1.12,1.07-2.15.82-.08-.35,0-.36-.51.31-.51.65.34.66.31.29,3.75,1.54,4.75.88.36-.15,2.65.5.26.21.23.26-1-.14-1.11.28-.51,1-1.49.21-.61-.13-.32-.17-.14.07.65.64,1.78,1.5.87.28,0,1-.45.31,0,.72,1,1.06,1.17.45,4.48.73,2,.49,1,.12.51-.07.27-.2.18-.32.42-.19.24.07.23.16,2.49-.79,3.8,0,1.46.4,1.41.77.79.53.26-.57.34-.43-.79-.14-.48-.31-.35-.44.64-.48,2.11,1.41.45,1.47.62,0,.48-.76,1.94-1.68,1-.68,2-.67.7-.77.81.25,1.08,0,1.8-1.35h.36l.43.22.62.67.52.46.2.42.13.77-.37.72-.25.35-.75.46-.93.19-1.42-.1-.49,1,.68-.06,1.06.45,1.5,1.5.54,2.27.41,1,.4,1.19-.31.92-.64.7-1.11,1-1.07.62-1.54.29-3,.15-.53-.19-.36-.64-.52-.07-.58.12-.5.78-1.68,1.9-1.2.6-.9.93-.74.36-1.45.34h-.46l-.41-.39-.52-.22-.93.5-.57.41-.07-.14.15-.18.4-.23.19-.2.11-.35-.77-.69-1.33-.55-1.06-.15-1.94.47-.35.3-.4.58,1,.75-.06.24-.28-.1-1.6.2-.56.5-.23.53-.29,1.18.17,1.25.17.54.67-.54.64-.33,0,.23-.59.79-1,.27.31.7.25.15-.14.16-.72-.36-.69-.16-.75.21-.51.39-1.63,1.7-1.67,2-.24.88.12.52.13.32.6.58-1.42.32-1,0-.56.31.38.54,1.36.52-.16.17-1.71.34-.2-.12-.24.06,0,.61.07.42.38.39.85-.43.75.14.31.44-.7.86.27.67,1.11.35.41,1.32.4.62.55.07.64-.11v-.61l-.08-.43.38-.53.39-.09.19.06-.43.4-.22.29.42.28.49.16.35-.33.14-.05-.06.61.39.35.87-.2.46,0,0,.24-.8.42-1.13.76.39.32.32.12,2-.1,2,.6,2.87.05,1.58-1,.58.31.46.34-.44.25-1.17,0-.45.26,1.82.31.71.23.58.4-.69.9-1.29.72-.59-.76-.47-.75-.26-.13-.41-.08-.85.73-1.14.82-.4.14.33-.53.36-.76-.34-.45-.33-.24-.92-.23-1.09-.51-.79-.2-.61.18-.75,1.3-2.17,1.93.83.17.72,0,.56.25-.14.35-.08.5.91.62.77.4.89,0,1.23,1.49,2.18,1.49-.06.44v.5l1.52.86,1.46.05,3-.42,2.2-.74.93-.68,1,0,.23-.47.23-.85-.17-.7-.13-.31-.88-.37.55-.27.84-.94,1.31-1.94.42-.38.4-.5.45-.09h.68l.1.1-1.24.68-1,1.53-.86,1.67,1.15,1,.67,1.91,1.48,2.55.51,1.2,0,.71-.26.82-.31.6-.66.78.27,1.31.58.66.62-.32h1l-.93.88v.63l.06.5.36,1-.85.73-1,.3-.88.38,2.5.3,2.53-.54.21-.7.26-.16.26-.36h.2l1.88-.67h.69l1-.79.88-.5,1-.42.66.75.7.62,1.49.81.57-.15.58-.55.46-.16,1.39,1.12.62.68,1.77,2.37.85.61,1-.34.11-.75-.57-1.87.15-.71.4-1-.22-.67.31.23.53.2.6-.55.45-.81.59-.16,1.3.5.9.57-.7,0-.81-.28-.71.09-.33.58-.17.83.41.64.32.35.56,1,.72.26,1.09-.24,2.29-1,3.37-1.22,1.15-1.05,1-1.38-.74,1.62-.75,1.81.2.27.22.07-1.63.9-1.49,1.3-.4.77v.66l.23.91.61.18h.35l.94.38-1.6.21-.72.3-.36.83-.07,1.45-.4,1.41-.08.6.11.38.47.34.23.56.25.14.38.07.08.11-.47.21-.71-.13-.18-.15-.15-.24-.26-.08-.7.19-.31.15-1,.94-.56.4-.59.22-.62.41-1,.91-.72.78-.48.69-.11.39,0,.49,0,.52.1.55-.06.3-.22.06-.47-.07-.73-.19-.15-.28v-.32l-.47.2-1.08.83-.8.75-3.23,1.16-1.68,1.14-.66.37-1,.75-.49.66-.54.94-.35.71-.16.48.07.37.31.27,1.1.64.25.29-.14.25-.36,0-.58-.15-.39-.19-.21-.23-.45-.1-.69,0-.33.14.08.75-.11.13-.26,0-.31-.16-1-1,0-.22.68-.27.16-.26-.13-.21-.45.22-1.14.17-.3,0-.19-.21.28-.34-.24-.06-3.1,1-1.54.75-1.42.95-1.24,1.13-1.05,1.3-.94.89-.82.48-.46.4-.09.31-.23.21-.36.11-.3,0-.24-.16-.44.1-1.06.65-.16.23v.33l.13.43-.07.54-.27.65,0,.33h.3l.44-.23.58-.47.2-.51-.18-.55.05-.27.8.16.84.82.29,0,.93-.42.36-.37,0-.3-.19-1.31.09-.26.57,0,.3.31.44.56.09.35-.26.13,0,.14.19.14.27.08.34,0,.37-.21.41-.43.29-.2.6,0,.6-.53,1.54-1.73.14-.27.24-1,.19-.3.36-.27.53-.23.37-.1.65.15.66.3.26.17.08.15-.71-.14-.38,0-.26.18-.2.21-.21.44,0,.6.11.14.53.1,1.31-.16.51-.15.48-.31.46-.47.36-.18.81.27.28-.14.28-.37.37-.11.46.15.35,0,.24-.18.36-.5.22-.19.83-.23,1.27-.92.54-.29.31,0,.25-.07.41-.29.25-.08.18,0,.41.17.08.27,0,1.35.07.17.32-.24.27-.38.17-.48.12-.56.6-.3,4.11-1.31.55-.51.5-1,.23-.27.24,0,.08.15.12.86.12.09.18-.12.28-.33,1-.77-.1-.07-.16-.46-.17-.24-.27-.19-.52-.15-.44.1-.1,0,.09-.21.79-.91.4-.16,1-.22.42-.21.34-.09h.57l.34-.1v-.1l-.32-.1-.64-.08.32-.37,1-.49.63-.06.62.17.41.05.2-.06.32-.35.25-.79.32-.28.32-.18.36-.06.41.07.42,0,.43-.13.47-.31.5-.48.42-.27.33-.05.31-.2.28-.34.43-.1.54.06.24-.51.58-.23.17-.14.48-.92,0-.33-.3-.49-.19-.16,0-.16.27-.3,1.25-.83.55-.13.43.17.22,0,.12-.73.24-.17,1.2-.13.23-.09.32-.54.64-.43.21-.26,0-.3.39-.24.74-.17.65-.28,1.06-.7.31-.29.59-1,2.71-.37,0-.51.07-.08,1-.27h.82l.23-.12.08-.7.17-.51-.47,0,0-.1,1.31-.58.19-.29,0-.42.27-.48,1-.89.26-.15.79-.21.52-.27,1.16-.94.48-.64.18-.34,0-.25-.08-.23-.51-.49-1.53-.75-.85-.28-.72-.1-1.48-.4-.31-.34.25-.8.46-.92-.13-.26,1.76-1.05.4-.34.25-.34.59-.51.08-.16-.39-.19.12-.12,1.09-.71.44-.18.31.1,0,.12-.15.48.13.07.82-.11.92-.37.29-.2.15-.61-.1-.16-1.1-.31.16-.14.52-.17,1.6-.22.63-.22.64-.73.2-.42v-.41l-.22-.4-.56-.5-.9-.61-.89-.47,0-.06.65,0,.81.44.45.1h.47l.73-.26,1.11-.69.5-.43.2-.27-.29-.42v-.19l.23-.54,1.77-1.5.84-.5.52-.06.22-.14-.22-.76,0-.24.31-.51.9-.67.86-.34,1.15-.27.85-.43.55-.59.77-.51,2.14-1,.29-.06.22.06.4.4,2.33-.08.86-.11.2-.15.46-.77.32-.4.83-.56.45-.15,1.23-.15.67,0-1.72.79-.91.53-.59.55-.34.43-.09.31-.2.18-.59.19-.22.23.55.48,2.41,1.25.86.28,2,.28.46.49,0,.09-.63,0-3-.7-1.44-.1-.91.26-.74,0-.58-.22-.51-.29-.44-.37h-.59l-2.18,1.06-1.12.72-2.37,1-.22.19v.61l.24,1,0,.84-.54,1.86-.36.69-1,1.07-.79,1-.31.65-.45,1.33.23.59.34.2,1.62.47h.4l.3-.11,2-1.22.21.07.07.1-.92,1.28-.47.5-.88.66-.73.32-1.16.2-1,.53-.22.19-.3.42-.21.55.09.19.29.05,1.07.68h.76l.92-.41.71-.14.51.13.42,0,.33-.07,0-.19-.23-.31.11-.11.77.21.66.33.17,0,.23-.51.3-.37,1.13-.81.35-.5v-.53l.09-.27h.17l.36.26.26,0,.95-.44.27,0,.24.12.39,0,1.49-1.18,0-.22-.36-.61.07-.07.26,0,1.05.42.12-.12-.14-.79.06-.22.52-.61.19.23.35,1.06.11.17.1,0,.31-1.19.58-.69.18-.33.11-1,.13-.05.58.89.25.15.93-.34.33.32.42.19,1,.28.59,0,.69-.09.45-.13.2-.17.23,0,.26.14.22-.14.63-1.28.27-.23h.3l.2-.07.1-.13-.14-1,0-.54.08-.4.14-.27.34-.2.53-.14.35-.23.17-.32-.13-.37-.43-.43-.44-.08-.45.27-.69.15-.92,0-.7.15-.48.27-.1,0,.28-.33.56-.4.27-.07.83,0,.21-.13.13-.25.18-.64-.07-.24-.47-.24-.37-.09-1-.67v-.23l.55-.08.5,0,.31-.21.33-.84.54-.88-.11-.14-.4.08-.7.28-.1,0,.14-.25.3-.23.46-.21.39-.06.33.08.7,0,.41-.23.91-.78.46-.31h.14l-1.41,2-.22.49.09.2.64.57.54,0,1-.24.21-.23.2-.45.16-.15.28.24.58.2.28.31.19,0,.26-.11.23-.21.2-.31.38-.18.57-.06.46.06.35.18.68-.26,1-.71.86-.49,1.28-.08.64.23-2,.58-.24.6,0,.93.22.26.46.31.9.27-.67.53-.33.11-.15.16.43.28,1-.36.62-.11.44.14.1.19v.23l.11.31,3,.09-.1.28-.45.58-.33.36-.57.45.33.09.83,0,1,.26,1.17.5.86.08.55-.34.43-.37.72-.81.78-.62.89-.6.21-.06-.61.82-.24.5-.24.72-.25,1.2.31.39.71.22.45.23.18.24.73.19,1.27.14.95.39.62.64,0,.21-.49.17.09.28,1.08.07,1.12,0,1.92-.41,3.6-.4,2.55.11,2.86.51,2.79.61.9-.24.53-.24.24-.22-.08-.42v-.23l.08-.08.3.12.21.22.25.76,0,.23-.73.74.49.28,3.14,1.2,1.25.25,1.47.12,1.31-.15,1.93-.76.43-.24,1.53-1.37.6-.42.56,0,.19.11,1,1,1.64.55-.39.07-.84-.11-.27.19-.16.36-.08.37,0,.77-.07.4-.07.09-.21-1.22,0-1-.1-.28-.75-.77-.23-.07-.19.1-.27.19-.1.2-.08.31v.31l.15.56.34.61,0,.27-.63.84-.4.22-.59.2-.21.19.17.18.38.22.89.4,1.52.83,2.94,1.32,1.16.47,1.22.21,0,.13-.25.22.15.13.55,0,.64.22.72.38,1.38,1,.42.48.17.42.45.58.73.74.57.44.41.15.21.17,0,.34.08.08,3,1.75,1.33.59,1.07.62.59.21h.16l.77-.78,2.14-.21.31-.13.16-.19,0-.64-.27-.5-.78-.9-.61-.21-1.05.06.51-.59,0-.2-.79-.37-.1-.11-.12-.32-.29-.22-.81-.39-.89-.3-.54,0-.48.16-.13-.07.46-.49.26-.09,0-.3-.32-.51.08-.13,1,.48,1.7.41.35.32.22.42.17.15.46.18.52.38.47.2.25,0,.25-.18.15-.29,0-.41,0-.29-.23-.5.06-1,.11.08.21.38.33,1,.21.18.55-.28.68.05-1.39.72,0,.31,1,1.57.18.43-.22,1.06v.6l.15.06,1.94-.17.78.34.56.73.39.4,1,.21.33-.12.19-.31.07-.26-.08-.32-.58-1.61-.21-.73-.14-.76-.32-1-.5-1.25-.33-1.68-.75-1.09.44-.08.22,0-.11-.32-.43-.64.46-.09.07-.33.25-.63.09.09-.06.81.18.82.73,1.54.55,2.21.36.44.58.29.14.22.14.9,1.07,1.81.72.65,1.15.16,1,.63.48.52.31.11.5-.43.61-1.28.59-.78.21-.16.22,0-.08.18-.29.29-.72,1.68-.12.73,0,.77.16.52.88.74.47.53.5.76.14.1.42,0,.2-.15.43-.63h.4l1.95.44-.11.11-1.92-.13-.16.15v.29l.13.54.51.45,2,1.49-.17.1-1.28-.7-1.36-.59h-.32l-.15.17-.14.32.71.82.66,2-.19,1.52,3.55,1.15.57-.08.07.14-.16.74.06.27.18.33.64.67.4.24,1,.27.07,1.07.27.14.49.08.13.21,0,.41.17.35.32.28.47.62.31.19.72.18.38.51.23.46.25.29.28.11,1.88.21-1.2.41h-.68l-1,2.09-.55.82-.43.53-.32.25-.1.29.44,1.1.23.27.87.31.25-.17.49-.84.23-.79.2-.28,0-.15-.17-.48.07-.17.2-.2,1-.5,2.24-.72,1.64-.69-.27.4-.43.43.08.34,1,1.34.38.69.25,1.12,0,.55,0,.82.15.94.13.21.56.13v.19l-1.5.48-.4.58v.2l.44.86.29,1,.55,1.27,1.5.15.26.19.53-.58,1.16-1,.63-.71,0-.31.3-.69.87-1.44,0-.41-.13-.62-.39-1-.13-.55,0-.63.06-.59.16-.55.24-.51.32-.47.07-.56-.06-.58Zm-198.48-23.2,1.31-2.06-.34.06-1.4.5-.63.61-.3,0,.39.93.5.08Zm192.55,28.41.09-.71v-.92l-.2-.52-.79-1.17-.74-.84-.21-.06-2.29,1.12-.15,2.22-.72.74-.56.78,0,.52.2,1.22.31.51.25-.47.53-.72.77-.38.3-.29.17-.32.16.36-.18.47.19.36.35.09.33,0,.35.44.48.12.68-.54.44-1Zm-224.13-106,0-.12-1.35.54-.73.43v.16l.25-.06,1.08-.54Zm297.64,277.2-.13-.18-.71.18-1.31-.37-.23.09.16.26,0,.27.49.2,1.59-.28ZM-2057.49-313.1l-.22-.32-.35-.21-.36-.1-1,.15-.31,0-.59-.48-.32-.13-.4.05-.75.26-.36-.16h-.36l-.79.43-.85.22-.34.19-.33.77-2.67-.16-.6.09-.59.17.91,1.07,1,.84,1,.24,2.3,1.15,1.83.29.52.19.48.39.25.09.27-.11-.16-.42.2-.29,1-.39,1.14,0,1.14-.19-.09-.57-.16-.53-.53-.39,0-.3,0-.7.16-.49Zm-4.43,60.39-1.06.17,0-.22.37-.52,1.09-.78.57-.52-.67-.34-.24-.25-.18.18-.27.47-.35.36-.48.26-.28-.42-.08-.83-.3-.09-.39,0-.74.21-.83.13-.39.18-.34.32-.18.29,0,.26.1.26.22.26.28.13h.35l.54.11.72.22.23.18-.4.24,0,.34-.06,0-.13-.06-.36-.43h-.78l-.17.38-.32.16-.28,1-.44.28-1.41.51-.69.38-.7.06-.46.14-.63.41.18.21.72.35h.26l.23-.12.45,0,.27-.14.33-.29.31-.14h.28l.24-.08.19-.18.75-.33,1.24-.35.71,0,.52-.2.44-.53,1.16-.64.5-.37.58-.19.29-.21-.19-.18Zm1.48-1-.21.12-.3.34-.11.14v.2l.16.22.09,0,.17-.3.29-.27.23-.4-.07-.09Zm-10.76,2.88-1-.44h-.56l-.77.21-.61.29.11,2.29,2-.94.64-.37.14-.41.25-.44Zm30.18-10.74-.33-.22-.56-.16-.4-.16-.27-.29-.62-1.47-.22-.3-.27-.21-.35-.12-1.28,0-.39.09-1.78.75-.83.49-1-.12-.35.06-.33.23-1.13,1.68-.29.26-.88.49-.1.35v.21l.24.74.27.38.51.1,1,0,.82-.2.39-.18.37-.31.72-.79.41-.28.63-.16,3.15,0,.34-.11,1.11-.87,1.77.59,0-.15Zm-16.91,5.07-.83-.49-.47,0-.48.17-.3.2-.12.22,0,.27.3.53.13.06.67-.11.15.09.2,0,.24-.16.67-.09.29-.17-.07-.18Zm274.12,48.13.29.16.69.17-.17-.27-.07-.31-.58-.62-.31.06,0,.16.1.5Zm-254.06-50.88-1.13-.29.06.45.51.37.59.2.56-.19-.34-.4Zm-18.28,2.13-.3-.46-.11-.09-.26.05-.41.22.22.62,0,.39.07.09.28-.07.6-.39.38-.14-.22-.1Zm525.2,69.49.59.1h.92l.45-.13.16-.26-.06-.18-.16-.08-.33-.45-.18-.13-.49-.08-.1.09.12.2,0,.11-.2.16-.39.21-.29,0-.2-.11h-.13l0,.21.06.1Zm-2.22-3h-.13l0,.16.07.19.32.31.09,0,0-.12,0-.19-.11-.17Zm-502.24-73.3h-.19l-.9.46.12.32.16.2.44.27.15,0,.16-.18.25-.58,0-.2Zm502,72.82.13.19.16.12.2,0v-.17l-.2-.39v-.38l.18-.37,0-.23-.24-.09-.23,0-.38.39.25.35Zm52.08,16.77.2-.14,0-.09h-.28l-.17.11,0,.09,0,.09Zm-300.86-34.79,0-.15-.1-.43.13,0,.29.28.18,0,.26-.17-.09-.18-.74-.31-.13,0-.38.23-.17.22.11.21Zm-195.88-81.06.36.3.17.07.18-.26-.32-.45-.37-.33-.86-.36-.25.14,0,.13.33.3Zm416.36,92.33,0,.35.27.25.9.17,0-.12,0-.06-.13-.07.24-.32.07.13,0,.36-.19.26-.19.18v.24l.19.3.24-.07.28-.44.78-.69,0-.16.12-.26,1.33-.9.26-.28-.05-.11-.28-.15,0,0,1.48-.15.32-.18-.34-.27-.54-.14h-.75l-.75.1-1.35.42-.48.26-1.08.95Zm-3.6-5.59-.2.24,0,.17.25.09.48-.08.72-.25.25-.12,0-.07-.23,0,0-.14.28-.08,1.84-.87.2-.25,0-.13.1-.19.62-.47-.09-.07-.57.14-1.08.45-2.52,1.24-.3.19,0,.1h.2Zm-216.73-5.31-.11,0-.17.11-.13.44.07.23.2.18.34.11.1-.08,0-.17-.3-.41ZM-2001-8.34l-.23-.15-.32.08-1.36-.18-.23-.1,0,.33-.17.19-.07.27,1.73.1,1,.28.72-.32.23-.34-.19-.06Zm15.43-270.18-.68.36-.68.54-.2.28-.1.28,0,.18.15.07.44-.22,1.1-.78.43-.47-.12-.23Zm-7,7.37.25-.29V-272l-.06-.31-.13,0-.17.1-.75.75.09.25.27.09Zm-2.48,265.62-.19-.23-.55-.32-.29-.3-.83-.44-.49.07-.68.18-.17-.12-.29-.4-.34-.28-.46.07-.26.5.05.32.48.53.46.21.41-.08.2.63.07.59.19.08.64,0,.48-.2.82-.11.6-.47Zm6.67,7.41-.23-.58-.49-.11-.13-.85-.72-.79-2.72-1.12-1.35-.75-.27.11-.12.62.47,1-.57.79-.51.42-.39.54.53,1.06.48,1.38-.1,1.7.16.37,1.29.68.35,0,.28-.32.3-.64,1.45-1L-1989,4l1.31-.9.3-.47-.24-.29Zm16.34-290-.46-.53,0-.29.43-.45,0-.22-.11-.18-.53-.24-.67,0-.52.15-1,.53-.26.06,0-.51.31-.68-.6-.37-1.4-.33-.42.13.37.44,0,.3-.17.14v.4l-.11.23-.22,0-.67-.13-.21.06-.21.18-.2.3-.22.15h-.23l-.28-.28-.61-.9-.21-.12-.47-.09-.24,0-.23.11-.4.4v.27l.17.31.46.39.74.48,0,.21-.7-.06-.25.1.13.37.13,1.41.26.71.45.57-.43-.19-.33-.3-.49-.75-.42-.84-.39-.24-.05-.1.13-.19-.22-.4-.55-.19h-.41l-.66.13-.68.44-1,.29-.89,1-.25.74,0,.29.88,1.19.45,1.56,1,1.06.5.08.34-.48.15-.38,0-.28-.12-.25-.19-.22-.19-.12-.72,0,0-.1.34-.23.52-.1.7,0,.45.07.19.11.06.12-.35.44-.14.37h.12l.54-.27.77.43.49.05.07.08-1.79,1.55v.15l.12.15.15.1.35,0,1.39-.77.73-.94.08-.21v-.25l-.09-.18-.55-.21.93-.23.41-.23.13-.32.38-.27,1.09-.55,1.43-.1.39-.41.72-.36h.58l.48-.1.23-.13-.09-.32-.17-.29-.4-.39-1.13-.06-.26-.08.36-.27.18-.09.52,0,1.29.29,1.41.16.2,0,.28-.2.77-.88v-.19l-.14-.16Zm-52.55,21.34.2-.5v-.16l-.14,0-.42.51-.2.07h-.1l.12-.4,0-.18-.15-.17-.18-.06-.42.19-.32.43,0,.22.14,1.23.2.26.29-.23.31-.06.6.17.78-.23,0-.11-.31-.32Zm49.18-16.91-2.25-.16-.44.49-.13.74.51.47.39-.26.51-.6h.15l.82-.3.47,0,.17-.1v-.12Zm-8.24,5.13-.68.35-.06.29.48.24.32,0,.38-.13.22-.13.06-.13,0-.22-.05-.19ZM-2020-266.42l-.1-.08-.21,0-.39.63-.37,0-.41.53-.2.12-.25,0,.13.59v.17l-.06.25-.41.78.37-.17.84-.92.25-.2.3-.11.12-.25.39-.2.12-.14.09-.34-.38-.35Zm-1.88,252.94-.37.31-.14.36.06.26.22,0,.13-.3.17-.25.47-.19,0-.34.18-.31-.33-.07ZM-2024-267.21l-.16.17.24.22.88.45.09-.71-.21-.17Zm7.34,251.89-1.46,0-.95.56-.4.66.26.35.65.26.24.28.62.06.33.16.57-.38.19-.28.09-.52.19-.37,0-.33Zm-.27-248.44.21,0v-.24l-.18-.37-.46-.16,0,.21.24.51Zm-1.44-.8.36-.21.17.19.09-.11,0-.71-.19-.66-.19.07-.13.32,0,.15-.06.36h-.27l0,.19-.08.25Zm12.3,254.89-.1-.53-.28,0-.22,0-.19-.1-.16-.27,0-.28-.71-1-.37.06-.66.61-1,.1.22.35v.29l.65.75.18.39.2,0,.63,0-.23-.35.25-.07.06.08.06.27.36-.09.34.33.33.15L-2006-9l.36-.19-.12-.18Zm5.31,3.16-.39-.17-.7.12.4.58.1.45.41.09.38-.19.26-.39-.25-.31Zm240.54-85.33-.3-.05-.32,0,.2.38.39.07h.29l0-.11Zm278.14-80.5-.19,0-.1.11v.17l.09,0,.2-.22Zm-69.33-9.48.12-.1,0-.27-.12-.16-.28-.06-.25.19-.22.43-.29.28-.35.12-.24.29-.13.45-.23.4-.52.61,0,.17,0,.24.1.31.18.2.25.1.23-.07.59-.69.06-.15-.08-.07.08-.26.24-.45.18-.22h.11l.12-.09.12-.19,0-.18-.16-.16v-.07l.18,0,.07-.17,0-.37.08-.15Zm51.77,17.61.2-.27.1-.15v-.08l-.46-.08-.17.09,0,.21,0,.17.14.09Zm-51.23-19.1-.07-.08-.18.46.13.18.35,0,.19-.08,0-.34,0-.11-.11,0ZM122.33-245.92l-1-.46-.76.13-1.11-.28-.86,0-1.18.61.65.26.81.19.35.77,1,.39.93-.54.5,0,.93-.13H123l.3-.09.27-.15Zm33.81,8.2-.22.23,0,.22.22.37.41-.15.2-.32-.24-.21Zm-6.08-1-.28.79-.27.23-.63.14-.84.63.07.16.44.37.56-.36,1.15-.56v-.4l.37-.57.11-.37-.21-.09Zm11.13,5.91-.72-.42-.63-.49-1.13-.75-1.39-.35-.28.1.64.49,1.15.44,2.27,1.39h1.12l-.23-.24Zm-1706.48,51.54,0,.08.14.35.14.11h.18l.08-.11,0-.23-.12-.15ZM124-241.66l-.59.12-.14.28,1.38.12.27.3.42,0,.14-.75.2-.42-.76-.08ZM-1782.31-197.9l.2.32h.09l.06-.16,0-.09-.23-.47-.17.17Zm208.65,1.44-.05.25.08.06.21-.13.11-.14v-.16l-.08-.06-.16,0Zm-206-4.44-.07-.72-.06-.06-.21-.11-.07.05-.09.25v.39l.12.17.35.19ZM-1542-186.2l-.22.3-.22.65,0,.37.17.09.22,0,.27-.17.11-.31-.06-.7.06-.08Zm-237.44-13v.22l.13,0,.25-.14,0-.19-.31-.41-.17-.36h-.12l-.13.55,0,.52.27-.26Zm244.57,12.75-.82-.11,0,.13.49.4.3.15h.19l.14-.08.1-.15,0-.18-.23-.21Zm-39.34-9,.08-.28-.05-.07-.21,0-.48.16v.12l.46.07ZM-1602-63.69l-1.4,1.07.32-.07,1.12-.75.63-.6-.38,0Zm26.24-130.53.15,0,.37-.11.19-.12,0-.12.16-.12.41-.22,0-.11h-.15l-.86.46-.19.18Zm1803.33-89.7.18.32.6.16.67-.43.29-.53-1.74.36Zm-1.9,40.13-.7.57-.23.26.07.34.12.1.41-.27.26-.1h.28l.23-.14.18-.28v-.22l-.15-.15Zm6-1.62h-.42l-1,.28-.06.18.07.21.66-.07,1,.19.09-.13.1-.35-.12-.17Zm-16.93-68.83-.89.07-1.39-.64-.76-.47-.41-1-.8.37-.17.73.74.29,2.07,1.3,1.53,0,1.06.31-.29-.43ZM240.56-249l-.1.16-.36.23-.87-.08-.43.09-.33.25-.45.46-.12.23,0,.61-.08.3-.26.22-.47.6-.42.36-.64.4-.1.28.15,0,2.09-1.07.27-.06.65-.46.31-.17.28-.06.38-.36.49-.66,0-1.25Zm-26.41,7.94-.47.3-.25.24-.24.46.52.13.48-.13,1-.49-.45-.37Zm18.78-37.66-.47.12-.84-.18-.07.25.86.57.29,0,.72-.47-.07-.22ZM238-342.12l.29-1-1.8-.37h-1.45l-.48-.09-.85.09-.82-.26-.21-.34-.24-.24-1-.18-1.54-.45-.25-.36-.17-.5-.25-.42-.32-.24-.82-.41-.84-.19-.78.11-.78.2-1.3.76-1,.09-1-.24-.94-.11-.67,0-.1-.25-1.18-.89-.64.25-.37,1.25-.09.52v.54l.18.53.34.31.68.44.72.2.76-.07.73-.33.72-.45.74-.3.69-.07.68.09,2.07.66.66.31.65.39.33.27.19.53.34.36.48,0,.82.21.8.33.29.18.26.29.37,1,.28.34.34-.13.33-.28.08-.62.57-.64.68-.5,1.64-.14,1.65.14ZM203.23-241.39l-.89.36-.38.31-.45.21.19.18.95.23-.3.46-1.08.28-1.24.42-1.6.35-1.3.4-.62.08L196-238l.53.24,3.45-.35,2.15-.37,1.43-.49-.38-.56.1-.2.7-.19.16-.38.08-.36-.18-.31Zm-19.05,4.22L184-237l-.28.58-.31.31-.5.25-2.14.47,0,.17.1.21.5-.15.66-.06.59,0,1,.1.34-.09.19-.11.08-.77.09-.25.27-.26.11-.3-.3-.23Zm4.23.79-.74,0,0-.29.27-.45v-.21l-.3-.32-.65,0-.3.78.06.47-.24.18-.65.24-.56,1.6.8-.62.43.39,1.37-.7.3-.29.27.12.11,0,.1-.16v-.56Zm-8.53,0-.43-.17-.57-.5-1,0-.33.11-.17.18.26.29.7.4.38.32.06.23-.15.17-.5.22.13.16.86.47h.15l.14-.28.34-.31.36-.79.29-.2.52-.21Zm8.91,0,.11.69.3.23.4-.5,0-.09-.63-.5Zm-26.25-1.19,0,.4.33.33.61.12L164-237l.34-.53-1-.55Zm47.48-1-1.57,0-1.26-.35-.67-.06-.79.22-.1.12-.93-.23-.34.07,0,.17.38.27.33.16.28,0,1-.12,1.36.18.6,0,.88-.19.34,0,1-.14v-.1Zm-19.81,1.84-.07.44.71.38.54-.19-.4-.27Zm1-1.68-.3-.15h-.5l-.19.37,0,.23.22.22.63.27.15-.25.3-.23-.08-.18Zm-1766.48,43,0-.11-.16-.17-.11,0-.07.11,0,.11.24.14Zm63.47,162.59-.06.1h.12l.27-.12V-33l-.09-.08Zm-1.92.73.3.12.29-.16.36-.08.38-.21-1,.17Zm-1.82-.27v.12l.27.45v.2l.09,0,.19-.14.1-.12,0-.12Zm32-70.1-.59.9.16-.08.94-1.16,1-1-.31.18Zm-27.19,69.09.17,0,.15-.24-.07,0Zm25.67-68.69.08.11.35.15.25.08.14,0-.49-.29Zm-33,71V-31l.16,0,.28-.07v-.14h-.19Zm9.39-5,0,.43-.31.37-.34.2-.16.32-.5.69-.14.32,1.28-1.28.8-1.4-.15,0Zm-7.9,4.54-.34.27.42-.07.22-.1v-.19l-.2-.32Zm-3.25-12.73v-.4l-.24-.78-.31-.24.22.75ZM-1563.39-69l.25.9-.18,1.07.18-.22.1-.88-.09-.47Zm-.48,2.64,0,.14.35-.37.11-.28-.18.14Zm-18.36.58-.51-.31-.32,0-.52.24.07.26,1.06.61.24-.1.2-.27,0-.19-.09-.12Zm19.77-4.67.06.14.35.14.57.15.08-.08-.1-.09Zm3,.07-.34.1.17.05h.84l.57-.15-.24-.15Zm39.39,26.22-.4-.49.11.46.25.24.46.13.23-.18-.51-.05Zm-17.61-22.18-.79.36-.31-.07-.43,0,.7.18.65-.25,1.1-.63-.48.1Zm104.19-107.75-.09.06-.08.13v.39l.26.05.24-.16-.21-.36Zm10.69-4.83-.6-.14,0-.47.22-.36-.14-.78-.18-.41,0-.24-.3-.1-.27-.08-.23-.07-.14.11-.13.15-.16.11-.33-.16-.21-.29-.34-.3-.13-.22.07-.26.15-.25.07-.3-.17-.35-.15-.2-.11-.22,0-.22.21-.1.2-.13.07-.28-.12-.3-.11,0h0l-.4.14-.73-.1-1-.54-.54-.56.4-.13v-.11l.05-.21.11-.18v-.2l0-.14V-187l0-.14.07-.28-.11-.21v-.72l0-1.34,0-1,0-1.3V-193l0-1.33,0-1.26,0-1.19-.82-.69-1-.87-.89-.58-.48-.07-.3.08-.12.23-.67.25-1.21.26-1,.41h-.38l-.32-.07-.42-.2-.29-.3-.1-.52.09-.72-.62-.15-.62-.15-.38.5-.36.42-.72.91-1,1.28-.56.7-1,1.23-.87,1.08-.2,1.11-.19,1.05-.72.8-.44.73-.2.81-.16.74v.62l.12.33-.06.26-.24.3-.48.53-.09.51-.29.25-.83.5-.68.74,0,.42.1.35,0,.22-.14.15h-.27l-.29,0-.25.31v.44l-.18.32-.21.07-.18-.23-.22-.34-.26,0-.39.22-.48.37-.43,0-.81-.24-.59.71-.63,1.53h-20.52l-.34,0-.61,0-.9.27-1.18.56-1.43,1-2.51,2.18,0,.05.07.05.07.2-.1.23-.27.26-2.61,1.69-.74.61.28.34,0,.15.16,0,.53-.29.16,0,.08.08,0,.19-.25.33.11.08.47-.07.2,0-.18.25-.24.16,0,.15-.36.41-.16.08-.09-.06,0-.18-.33.2,0,.16.19.15.15.24.11.32.05.69.07.13,0,.06,0,.08,0,.16.07.14-.06.17-.19.19-.37.1-.56,0-.62.22-.69.42-.47.38-.26.34-.19.14-.12-.06-.93.28-.33.19-.08.17-.09,0-.09-.11-.66-.08-1.23-.05-1,.05-.7.16-.61-.09-.53-.34-.84-.27-2.17-.29-1.82.06-1.49.2-2.34.6-.05,0v0l0,1.34,1,.28.09.1,0,.19-.16.28,0,.38.22.49.09.39,0,.29-.26.27-.48.26-.44.4-.4.53-.54.43-.68.34-.65.42-.62.51-1.23.7-2.39,1.19-.31.14-.28.15-.54.26-.53.27-3.44,1.14-2.31.94-1.41.76-1.22.94-.55.29-.61.08-1-.05-1,.11-1,.28-.67.23-.31.17-.29.05-.28-.07-.76-.46-.06,0-.14.07-.45-.08h-.51l-.44.17-.44,0-.44-.11.37-.16,1.74-.35,0-.06-.63-.2-.19-.18h-.16l-.12.21-.23.09-.34,0-.34-.16-.34-.29-1.12-.47-.31-.24-.4-.16-.58-.08-.09-.14.1-.18.51-.87.3-.33.12-.09h.16l.07-.09,0-.19.06-.12.33-.32.18-.17-.08-.27.08-.49.21-.63.24-.45.27-.28.3-.19.58-.22.15-.14.12-.37.09-.6.19-.38.29-.16.08-.18-.13-.2.11-.2.35-.19.29-.06.24.08.11.2,0,.52-.06.16,0,.13.64-.52.37-.89.46-2.16-.09-.16-.19-.33-.35-1.55-.52-2.77-.43-1.72-.34-.67-.46-.51-.58-.35-.44-.15-.31,0-.48.28-.9.25-.37.16-.21.22-.25.13-.29,0,0,.06.22.08v.21l-.61.95-.14.22-.37.08-.3.19-.31.47-.3.12-.43,0-.73-.29-.44-.29-.15-.29v-.35l.13-.41v-.33l.27-.68.37-.24.54-.06.3-.11.06-.16.17-.11.28-.07.23-.43.19-.8.23-.44.16-.08.15,0v.1l.62-.51.23-.36v-.37l.06-1.07.07-.69.09-.31,0-.81-.18-.67-.7-.73-.1-.24,0-.26.14-.27.31-.06.54.21.09-.05-.15-.12-.09-.24,0-.36-.07-.2-.11,0-.3-.42,0-.21,0-.2-.12-.2-.41-.32-.74-.32-1.77-.61-.32-.24-.44-.14-.56,0-.35-.19-.15-.33-.25-.3-.34-.27-.54-.17-.74-.08-.78-.29-.82-.49-.52-.17-.22.16-.39.05-.55-.05-.19.07.17.19-.14.29-.45.4-.26.41-.07.42.07.37.21.32.31.21.41.09.08.13-.24.16-.42.09-.61,0-.61.18-.62.33-.36.3-.1.26,0,.38.08.93,0,.36-.27.66-.35.86-.42.54-.08-.07.07-.26.35-.87.05-.37,0-.19-.12,0-.14.17-.15.35,0,.19.09,0-.06.24-.22.45-.19.09-.16-.27v-.35l.26-.7-.09-.14.15-.44.07-.32-.08-.33.06-.3.2-.28-.06-.08-.33.11-.47.52-.61.92-.47.4-.34-.12-.27.08-.21.27-.22.13h-.24l-.15.32-.05.65-.24.37-.72.22-.14.17v.24l.12.31v.62l-.11.93-.24.81-.37.69-.4.57-.67.75v.15l.33.59.14.44.07.87,0,.14-.64,1.08v.15l.69,1.8.61,1.29.07.14.18.51.34,1,.17,1v1l-.08,1-.17.92-.26.88-.34.84-.35.66-.73,1.09-.35.73-.37.59-.38.45-.69.5-1.77.91-.55.18-.61.07-.66,0-.36-.1-.08-.17-.14,0-.19-.11-.24-.19-.27-.35-.29-.72-.32-1.09-.28-.65-.24-.21-.22-.33-.2-.44-.1-1v-1.56l.07-1.06.13-.57,0-.43-.2-.3-.13-.37,0-.45-.11-.3-.17-.16,0-.22.09-.29v-.2l-.09-.11,0-.16,0-.21-.08-.63,0-.38.11-.42.37-.75.12-.37,0-.38.17-.48.48-1v-.23l-.16-.44,0-.33,0-.44.15-.54.27-.65.35-.52.44-.39.14-.44-.15-.49.06-.73.26-1,.29-.73.32-.48.22-.46.12-.44-.05-.2-.24-.21-.23-.31-.39-.07-.48.2h-.07l-.25,0-.46.45-.41.78-.3.32-.41.22-.3.24-.2.27-.26.06-.32-.15-.06-.37.2-.59.3-.56.61-.92,0-.22.15-.27.95-.4.36-.31.12-.4,0-.59.06-.17.14-.07.42-.5.69-.92.62-1,.55-1,.4-.55.25-.13.19-.3.29-.92.22-.42.15-.16.07.1-.14.51v.42l.12.53.23.18.35-.17.3-.35.25-.54.29-.22.33.09.27,0,.22-.16.41-.08.08.2,0,.41-.13.2h-.21l-.24.21-.27.44v.35l.29.26h.14v-.23l.14-.24.43-.43,0-.14.82-.38.31-.24.09-.28.43-.57.4-.18.55-.08.53.05.52.18h.29l.07-.18.44-.12.81-.06.6-.26.38-.46.49-.24h.6l.81.16,1,.34.83.46,1.09.92.29.09h.19l.09-.07v-.09l-.08-.11.05-.39-.05-.11.32-.61.28-.16.32.06.2.13.08.2.1.07h.2l.11,0,.07,0,.1-.11.68.05,2.33.31.32,0,.18-.11,0-.16-.15-.16-.61-.33-.19-.21,0-.2.09-.19-.13-.17-.35-.15-.76,0-.13-.16.06-.16.22-.2v-.29l-.07-.17-.1-.5-.17-.34-.33-.5-.13-.18-.2-.11-.19,0-.24.09-.28.21-.39.23-.41-.06-.28-.32-.4-.07-.52.18h-.47l-.41-.2-.77-.09-.09-.15,0-.15.12-.16.07-.39v-.61l.11-.43.19-.25-.3-.1-.8,0-.91.21-1,.37-1.12.13-1.21-.11-.92,0-1,.18-.18-.06-.64.25-1.1.55-.83.51-.68.58h-.11l-.16-.13-.35-.18h-.37l-.39.17-.4-.11-.41-.38-.37-.11-.33.17-.55.07-1.21-.09-.13-.12-.11-.41-.13-.18-.23-.12-.37-.45-.82-1.16-.23-.14-.67-.36-.64-.16-1.62-.23-.35-.16-.21,0-1.07.63,0,.14-.06.13-.18.22-.14.1-.09-.1-.09-.18v-.4l.12-.62-.07-.4-.25-.19-.11-.22,0-.26-.18-.21-.39-.16-.18-.21,0-.26,0-.18-.11-.09-.42.2-.73.5-.5.44-.26.39-.39.22-.52.05-.41.17-.74.57-.55.29-.91.21-1.28.14-1.06.37-.85.61-1,.51-1.21.42-.82.15-.43-.12-.52-.26-.77-.46-.11,0,.06.1,0,.08-.14.13-1,.34-.13-.13.37-.47.14-.35v-.32l.16-.4.34-.47.12-.32-.09-.17-.37-.27-.3,0-.38.09-1.17.7-.12-.05-.37-.11-.09,0-.9.61-.91.36-2.16.52-.55.06-.43,0-.55-.3-.22-.21,0-.22.26-.24,2.7-1.87,1.66-1.34,2.76-2.51.71-.5,1.6-.84,2.57-.81,1.27-.45,1.1-.49.7-.38.31-.26.25-.12.19,0,.17-.08-1.27-.11-.81.16-.6-.16-.3-.52-.33-.33-1.47.16-1.85-.11-.88.07-.34-.22-.28-.57-.49-.07-.82.13-1.14.73-1.07.38h-.84l-.83-.38-1.36-.76-.94-.86-1.07-.3-.82.08-.32.43h-.43l-.3-.73-.26-.57-.53-.25-1-.55-.67-.3-1-.36-.36-.07-.67,0-.66,0-.77.1-.55.46-.65.2-.92.09-.62-.19-.31-.48-1.31-.43-2.31-.37-1.33-.32-.35-.26-.19-.28,0-.45h0l-.58-1.16-.25-1-.11-1.16,0-.38-.13-.12-.42-.25-1.39-.17,0,1.39,0,1.75h-177.67l.43,1.16.24.49.21.25.34,0,.12-.1h.12l.11.13.21.77v.94l.09.15,0,.26-.3.14-.55-.08-.19.06-.08.2,0,.16.16.11.36,0,.26.15.34.3.51.66,0,.2-.41.09-.34.24-.06.24.08.33.15.24.64.38.05,0-.24-.71.06-.07.17.14.23.43.23.28.36.31.12.26-.49.64-.08.28-.4.64-.06.3.13.26v.29l-.15.32,0,.2.19.2.08.2,0,.62.15,1.08,0,.19-.43.48-.29.13h-.3l-.2.16-.4.88-.15.18-.48.27h-.18l-.53-.28-.66.12-.73-.06.26-.27.2-.58.24-.37.59-.38.1.06.19.84.1.06.3-.71.08-.09.38.28.29.06.17-.15.16-.91,0-.47-.18-.53-.58-.68.07,0,.23.07.09-.06-.11-.63.08-.16.61-.46.08-.38-.14-.85-.34-.07,0,.09,0,.5-.13.17-.71.6-.25.5-.37.34-.64.42-.45.39-.43.65-.07.21,0,.44h.31l.65-.14,0,.08-.7.39-.47.1-.21-.06,0-.25.05-.42.52-.93,1.47-2,.1.08,0,.39.15,0,.78-1.17-.15-.41-.39-.67-.19-.51v-.36l-.07-.14-.53.39-.31.11-.42,0-.32-.07-.64-.57-.24,0-.57.25-.29,0-4.38-.4-.79-.26-.49-.35-1.63-.48-1.31-.61-.5,0,.19.78-.14,1.1.25,1.46.27.57,1,1,.54,1,.43,2.07.71,1.59.18,1,0,.58.16.49.14-.37,0-.28.45,0,.36.37.92.17-1.73.81.26,1,.73.29.44.39-.15,1-.22.81-.45-.72-.18-.67,0,.92,0,.95-.18.75.73-.17.41.27,1.33-.26.24.26,1.19,0,.39.4.68.4.3,0,.2.11-.65.08-.52-.09-.41-.44-.36-.11-1,.32h-1.53l-.33-.35-.17,0,.09.33.18.3-.09,2.39.21,2.13-.22.8.09.6-.71,4.95.09,1-.13,1,.12.75-.33.72-.2,2.19-.12,2.85-.23.31-.35.87-.31,1,.35-.21.23.1-.51.44h-.29l-.17.21-.69,2.56-.28.59-.26,1,.62,1.11.24.67-.09,1.57.07.59.35,1.4.92,1.07,0,.74-.23.77.52.53.29.75.29,1.24,0,.58-.46,1.75,0,1.42-.43,1.13-.12.24,0,.12.21,0-.12.2-.07.38-.2-.06.05-.18-.07-.09-.19.23-.26.86-.3.81.1.91.21.9L-1790-142l1.44,1.77.33.64.32,1.18,0,.78-.27,1.1.65,1.93.12,1.53,1.78,1.73.87,1,1.08.65.48,1.08.38.21.5.6.2.55-.65-.77.06,1-.21.58,0,.23.43-.5.38.22.72.6.51.32.62.21.4.35.35-.09-.18-.86.07-1.15.58-.27.36.07.83.47.35.05.79-.43.25,0,.38.25.34.09.85,0,.43,0,.36-.07.65.21-.31,0-.42-.07-.51.2-2.38-.12-.84.07-.63.25-.46.35.13.29.21.18.24.79.47.43.41.78.22.61.18.19.17.3-.31,0-.3-.14-.4-.46-.44-.21-.46-.47-.13-.63,0-.35-.4-.07-.44.19.09.88v.82l.58,1.25.09,1.22,1.48,1.6,1.82.38.47.65.08.37,0,.51-.29.55-.54.63.05,1,.21.75,1.37,1.3L-1773-111l.2.46.58.52.39.85.94.5.74.92.79.41.25.43-.16.66.18.47,1,.38.31.26.16.33-.19.92.25,1-.08.45.07.58-.12.64.55.26.51.52.54.09,1.46-.12.75.05,1.28.41.9.09.69-.13,1.24.57.94.59.2.67.59.38,2,.63,1.5-.08.6.13.73,1.15-.11.82.75.23.19-.33.66.06.52.21.83.74,1.05.58,2.06,1.74,1,1.4.36,1.15,0,.47-.1.48.18,1,.38-.17.3.28,0,.78v0l1.84-.15,1.84-.15,1.84-.15,1.84-.15,1.84-.15,1.84-.15,1.84-.15,1.84-.15.74-.08-.41,1.07-.31.4,3,1.05,3.05,1.05,3.05,1.05,3,1.05,3,1,3.05,1,3.05,1,3,1h18.18V-81.2h11.36l.06,0,.57.61.59,1,.69.66.8.38,1.36,1.11,1.92,1.84,1.53,1.22,1.14.61.77.53.39.44.53,1,1,2.2v1l.38,1,.76,1.24.66.73.57.22.62.44.67.65.78.44.88.22,1.22.59,1.55.95,1.06.48.58,0,.5-.3.43-.63.42-.41.42-.18.17-.29-.08-.4.28-.9.64-1.4.77-.76.89-.12.58-.26.27-.41.48,0,.68.32,1.11.21,1.53.09.91,0,.28-.16h.14v.17l.23.07.44,0,.39.24.49.76,1.7,1.21h0l.14.42.59.6,1.09.92.62.79.14.67.56,1.05,1,1.44.43.78-.11.11.08.4.26.7.48.59.7.48.71.87.72,1.25.87.95,1,.65.58.6.14.56v.48l-.16.4.07.38.29.36.1.44-.11.61v.17h0l.08.14.91,1,.47.84.37,1.35h0l.41.8.59.33.91.12.69.28.47.44.6.26.72.09.69.29.66.49,1.24.32,1.81.15,1.38.4.95.64.42.13h.11l.05-.1.07-.18.37-.21.87-.14,0-.47-.07-.24-.41,0-1.21-2.25-.21-.61-.2-1.41-.18-.47-.21-1-.18-.41.25-.59.26-.45V-49l-.07-.44-1.33-.34-.49-1.18.56.43,1,.56.28,0,.26-.08.38-.63.59-1.74-.92-1.15.17-.15.19-.07.79.11.52-.17.63-.74.25-.75-.69.23-.09-.29v-.29l.39-.1.52,0,.31-.18.21-.24.09.27.18.19.34-.26.21-.18.08-.7.13-.7.63.56.74-.18.47-.27.44-.36-.35-.15-.32-.07-.74-1.53.2-.1.21.05.1.22.22.25.5.37.48-.25v-.18h.63l1,.23.67-.07-.78.49-.66.5.35-.09,1-.59,1.07-.37.78-.5.49-.23,1.72-1.07.73-.46.78-.8.08-.62.78-.64.84-.77-.31-.63-.37-.49-.19-1.2.26-.07.34.23.26,0,.37-.53.58,0,.11.66-.35.75.29.09.82-.23.51.14-1.44.91-.06.24,1.19-.7,3.05-1.3,1.35-.13,0-.23-.39-.65.67-1.15.31,0,.16.17,0,.27-.23.44-.25.22-.23.06.12.38.25.21.39-.19.46-.12,2,0,.68-.09.69.07,1.44.45,1,.56.77.26,2.64.28,1.14-.25.16-.17-.35-.35-.14-.22.36-.43.4-.28.8-.25.44.6,1,0,.69,1,.33.35,1.18.29.34-.34h.19l-.07.41.1.34.57.74,0,.23-.56-.09-.29.07,0,.22,1.85.67,1.62.44.47-.14.59-.84.54-.2.79,0,.5.27.35.87.22.18.49-.22.22-.32.12-.4.06-.4.13-.28v-.66l-.31-.22-.26-.11-.13-.17v-.23l1.81.55.38.29.13.25,0,.33.49.14.29,0,.34.1.28.24.36.13.51.38.35.62.23.24-.15.62.29-.12.61-.57.26.19.26.26.14-.21.15-.37.57-.31,0-.42-.32-.11-.33-.21-.41-.61-.42,0-1.72-.61-.43-.46-.61-.37-.3-.56.2-.19,0-.2.13-.06.27.07.39-.17-.2-.19.39-.33.48-.09.65-.25-.05-.14,0-.57-.28-.4-.08-.23.09-.25-.6-.09-.44.39-.17.61-.27.08-.72-.18-.46-.54.24-.27.4-.23.32-.27,0-.19-.45-.19-.23.24-.25.09-.53,0-.64.47-1.17.21-.7-.25-.82-.53.52-1,.69-.71.64.07.52.12.59.58,2.35.72.93-.4.79-.86h.37l.26.08,1.09-.25,1-.33h.21l.34.07.82.36,2.2-.13.65.07.73,0,.12-.34.25-1.06.3-.81.14-.09.4.47.17.46v.79l.17.25.26,0,.28.43.15.39-.73.23-.52,0-.13.16,2.47-.24.7-.73.42-.18,0,.21-.37.38.16.11,1.25-.32.19-.4.43-.4.09-.6h.33l.3.27.25-.38.23-.12.21.48-.13.5-.89.24-.26.16-.24.25,1.5-.23,1.85-.21.47-.15.53-.3.49-.2.47.09.75-.08.59.2.18.16.09.25-.75-.16-1.38.21,1.8.47,2.05.83.42.3.23,0,.08-.24v-.3l.42-.25.47-.05-.24.35-.14.33.34.29-.09.22-.34,0,1.1,1,1,.7.3.55-.05.28-.14.13-.3-.31-.2-.4V-67l.24.51.37.1.85-.19,1-.09.39-.17.52-.23.57,0,1.61-.87.62-.09.46,0,.16-.15-.11-.37.13-.33.3-.25,1.71-.27,2.25,1.25,2.6,3.32,3.35,2.79.76,1.14,0,.53,0,.29-.06,2-.57,1.73-.61,2.71.23.48.21.29.21.17.18-.16.35.1.22-.19.1-.22.09-.66-.24-.17-.27-.46.25-.12.36.16.38.56.14.07.34-.24.26.28,0,.19-.19.44-.58.64-.74,1.06-.33.06-.18.11.38.35.22.33,1.15,2.35.56.85.41.45.3.15.4.06.08-.24-.08-.43.55-.18h.53l-.35.48-.07,1.29.25,1,.21.08.23-.08.32-.55.25-.23.34-.15-.43.62-.41.74.18.15.42.22.35,2,.62,1.12.95.63,1.31.41.13.68.76,1,.73,1.48.36.2.49.18.26.32-.16.27-.85-.65-.25.06-.15.28-.06.28.37.62.63,0,1-.29.81.14,1.15-.52.47,0,.76-.69.25-.65.17-1.31.53-.84.39-.93.1,0,0,.21.06.06.1-2,.45-3-.06-1.64-.25-1.28-.24-.61-.65-.85-2.73-6.73-.23-.63-.4-.76-.25-1.25-.2-.52-.13-.85h.19l.24.18-.06.34.09.35.42.22.08.16-.26.43,0,.37.25.82.18-.21.07-.54.14-.46.17,0-.1,1.41.08,1,.71,1.68.27.23-.49-1.17L-1510-56l-.08-.63,0-.65.09-.43.28-.41-.26-.49-2.16-3.43-1.32-2.84-.93-2.35-.56-2.43-.31-.9-.46-2.61-.3-.64-.08-.5,0-.51.13-.28.19-.67.12-.56,0-.27.12-.51.19.14.31.05.49-.65-.26-.35-.31-.13,0-.15.55-.13.24-.46.25-.26.28-.42-.13-.05-.18.07-.23-.07.11-.25.47-.26,0-.25-.14-.15-.07-.26.23-.28.41-.07.21-.25v-.18l-.2-.19-.11-.27.2-.11h.24l.79-.38.33-.6-.06-.28.21-.32.38-.08.21-.12.41-.52-.05-.21-.2-.14-.2-.23-.21-.46,0-.6.6.79.17-.08,0-.23.2-.11.14.5.11.24.19,0,.42-.26.18-.19.07-.51-.36-.37-.67-.26.4-.16.72.09.63.15.61-.26.25-.28.32-.12.37,0,.65-.22.52-.34.3-.44-.25-.58.82.16.45-.27.77-.6.18-.65.57-.19.51-.11.93-.66.3-.36-.34-.93.35-.64v.3l-.07.37.29.49.36-1.16,1.4-1.81.51-.47,1.7-1.07,1.11-.32,2.52,0,.27-.59.11-1.27.18.69,0,.6,0,.36.26-.8.18-.71.71-1,.35-.34.3-.18.85-.68.89-.54-.14-.2-.07-.27v-1l.18.26.17.54.4.13.29-.09.76-.67.54.08,1,0,.64,0,.41,0,.17-.33.57-.13.65-.05.5-.48.5-.68-.61-.38-1.85.35-1-.21-.49-.4-.61-.94,1.35,1.09.53.11,1-.6.09-.22,0-.35.27-.45.34-.4-.26-.26-.27-.18-2.44-.94-.42-.5,1,.47.94.23.69-.16.15-.56.22,0,.29.17.11.52.17.29.28-.08.36,0,.74.23.65.11.45-.19.88-.93,1.24-1,.19-.86-.09-.57-.09-.41-.26-.41-.27,0-.8.47-.14,1.27-.29.23h-.24l.05-.71.1-.67-.06-.67-.88-.15-.37.18-.61.1-.93,0-.69.09-.74-.1,0-.55-.14-.73,0-.7.1.59.25.53.77.44.52-.09.35-.29.26-.48.4,0,.6.16-.28-.54.31.17.46.15.06-.51,0-.47.6.33.67.19.43.24.4.46-.3-1.14-.37-.84-.34-.34-.09-.33.21-.71-.09-.21.05-.28.12-.16.18.19.16.49.54,2.17.52,1.23,1,1.69.3.39-.16-.44-1.28-2.56-.85-3.14-.33-.8-.16-.71-.21-.37-.93-.13-.64-.16-1,.46-.57-.05-.11-.47-.83-.64-.24-.93-.6-.08-1-.3-.49-.34-1.25-.18-.2-.1-.15-.15,1.57.09,2,.74.47,0,.18.58.61.52.29.31.39.29.4-.16.35-.29-.11-.43-.17-.28-.48-.47-.62-.25-.73-.56-.82-.93-.11-.23v-.19l1.41,1.45.54.26.39-.2-.08-.24,0-.4.88.22.06-.54-.09-.48-.64-.26.4-.31-1.15-.42-.42-.3-.45-.64-.62-.41-.86-1-.49-.69-1.2-1h.26l.84.53.72,1,.23.17,1.93,1.9.36.09.59,0,.25-.34.08-.54.2-.4,0-.34-.58-.52-.75-.36-.5-.62-.61-.29-1.68-.47-.9-1.19-.41-.1-.78.22-.27-.09-.26-.33.19-1,.15-.53.62-.57.47-.32.3-.42.1-.85.08.83-.23.54-.52.42-.55.82-.13.34.06.65.49.08.51-.33.49,0,.08.38.25.35.39.41.14-.34v-.4l.64.95,1.13.26.9.41.34.36.39.28.05-.4-.21-.42-.28-.53-1.5-1.39-.17-.62-.06-.56.12.24.08.31.48.77.4.24.46.31.29-.06-.14-.38-.27-.41-.28-.43-.23-1.57.1-.34,0-.39,0-.43.17-.35-.16-.42-.26-.48.08,0,.47.28.34-.32,0-.39-.4-.25-.54-.72,0-.11,1,.33.12-.21,0-.38.3-.16.09-.3v-.17l.11-.12.35.61.13-.22.06-.65.16.14,0,.3.48-.18.28-.23.11-.28,0-.43.14-.26.36-.06.3-.12-.07.61.63,0-.26.32-.26.07-.31.37.41.09.4.17-.64.07h-.63l-.51.4-.53.93.12,1,.54-.45v.31l-.32.69-.38-.14h-.44l-.11.42v.33l.58-.26.32.21.15.47-.51.23-.34,0-.26.81.21-.1.19-.37.42.11.24.39.76.64.26,0,.1.17h-.72l-.55-.13-.42.14-.2.79.19.43.34.56.61.33.42.28.2-.11.09-.21.13-.07.12.3.19-.14.31-.34.19,0-.12.32.08.43-.14.35-.28.33.24.16.23.05.39.4-.22.4-.14.45.74,0,.49.15-.39,1-.47.48-.62,1-.56,1.63-.14,1,.08.38.32.45.52-1.07.27-1,.29-.35.44-.32.43-.14.29-.17-.06-.54,1.56-3.22.4-.48.43-.84.42-.1.12-.32,0-.64.11-.16.17-.14.11.11v.33l.15-.13.08-.32,0-.57-.24-.56-.24-.15-.49.06.38-.31.29-.68,0-.41-.62-.31-.81-1.1-.53-.95-.13-1.42-.69-.91-.35-.56,0-.57-.09-.27,0-.39.55-.58.24-.48.41-.38.51-.25,1-.23.64-.67-.19.39-.32.46-1.28.31-.44.3-.32.58-.33.83,0,.53,0,.31,1.1,1.13.79.42.61.57.55,0,.48.17.5.32-.15.74-.22.73.2.07.83-.46,1-1.55.26-.3V-136l.16-.18.4-.23.28,0,.29-.34.12-.51.13-.24-.11-.47.49.1.48-.59.52-.85.38-1.6.14-.29.2-.13-.12,1.24,0,.31.2-1,.13-1.13.16-.74.21-.6.09-.59-.09-.55-.17-.39-.33.17-1.23-.2-.15-.55.24-.6.25-.3.22-.19.24-.11.31-.25.27-.28.63-1.2.12-.62-.05-1.07-.34-.87.29.24.28.36.07.88-.22,1.09-.27.56-.25.67.26-.19.24-.3.38-.12.46-.36.69-.67.57-.43,2.58-1.18,1-.31.64-.53.5.15,2.37-.08.7-.28.68.16,1.23-.26.93-.11,1,.08,1.58-.37.51-.57.11-1.38.4-.53-.17-.71.2.07.18.18.13.33.26.3.6-.48h.19l-.36.8.1,1,.13.21.57-.37.68-.08,1.76-1.28.22,0,.07.78-.08.38.07.18,1.13-.37.49-.34,2.22-.39.47-.05.25.05.1-.26,0-.75-.23-1.18-.84-.9-.33-.14-.28,0-.24.08,0,.16.26.28.15-.21.4.25.13.39.54.83,0,.35-.86.43-1,.31-.84-.22-.57-.35-.22-1-.69-.37.07-.27.18-.15-.78-1.45-.51-.28-1.15-.27-.32-.24.74-.78.38-.5.26-.43.51-.14.58-.36.31-.05.06-.21-.13-.17-.2,0-.27.07-.25,0-.29-.4-.12-.41-.19-.4.33-.9.29-1,.27-.31.31-.2.78-1.67,1-1,1-1.14-.23-.24-.2-.12.58-.74.75-.53.62-.16-.06.29v.24l.31-.07.34-.18.21.23.21.14.11-.26-.07-.48.05-.34.15.09.07.3.21.07.2-.81.3-.31.1.35.08.54.22,0,.21-.75.1.16.13.51.26-.06.3-.4.58-.35.76.11.57-.4.44-.47,0-.59.69-1.38,0-.68.73-.4.3-.51.24-.17,0,.48-.19.44.12.07.26-.07.17.09-.54.48-.12.33.57,0,.72.25.25.31.26.1.12-.36,0-.6.27-.52.19-.49.22.3.28.19.37-.23.25-.26.2-.06h.31l.3.1.22.09.15.41.24.43.27-.13.19-.15.14-.35.36.08.44-1,.31-.07.41.15.48,0,.35-.11.28-.54.63-.09.6-.32,1.11.17,1.31-1.2,0-.17Zm-7.87,3.39-.39-.14-.31.21-.4.52v.55l.17.14.45.21,0-.15v-.42l.41.07.37-.15,0-.25Zm-349.24-31,0-.22-.24-.32-.2-.17-.16,0-.26.27-.36.58-.16.34,0,.11.33.42.21.14.22,0,.11.19,0,.6.08.21.22.3.42.09.2.14.15.27.17.11.18,0,.11-.13v-.38l-.88-.78-.14.45-.31-1.08-.16-.36-.17-.11-.47-.12,0-.1ZM-1469-146l-.31.73.31,0,.32-.14.38-.34.08-.22v-.26l-.2-.07Zm-46.92,71v.59l.12.61.29-1.72-.21.17Zm7.26,22.47-.26-.8-.26-.39.39,1.43.73,1.85.59,1.18-.1-.51Zm-56.78-17.34-.59.41-.07.12-.14.11-.21.11h.47l.31.16,0-.33.09-.3ZM-1442.32-152l0,.18-.12.35-.15.08-.94.24,1.14.28.5-.12,0-.25Zm-36,41.43v-.18l-.08-.22-.44-.26.43.81Zm2.63-16.34-1,1.49.29-.12.83-1.37.43-.8.25-.88-.25.43Zm-4.88,21.67.13,0,1.17-.52-.53.12Zm11.15-32.58.75-1.14.17-.5-.94,1.42Zm-8.06,27.87v.25l.15,1.19,0,.68-.31,1.46-1,.41.08.06.86-.2.22-.29.29-1.22.05-.84-.14-1.11Zm21.88-39.13-.32-.28-.21,0-.67.17-.78.4-.34.29-.36.14-.41-.05.46-.49.53-.4,1-.87-.63.21-1.1.75-.52.27-1.31.15-1.32,0-.5.07-.48.21-.59,0-.61-.15-.22,0-.22.11-.3.05h-.56l-.23.1-.21.19-.06.33-.28-.24-.4.28-.78.32-.55.51-.25.32-.18.34.11.44.55-.13.35-.4.34,0,.15.11v.15l-.63.39.85-.17.94-.05,2.29-.48.24.09.22,0,2.77-.94.56-.1.77-.27.82-.38.57-.14,2.8-1.27-.65.13Zm9.56-3.38-.37.07-.56.57-.44.11.28.24,1.77-.37-.1-.29Zm-4.27-1.25-.18.46-.07.42-.18.28.36,0,.32-.21.06-1.25-.21.12Zm-.67.38-.13.43.07.37.18-.14.07-.44-.06-.23Z"/></g></g></g><circle class="cls-6" cx="7.78" cy="7.78" r="6.94"/></svg>